<svg xmlns="http://www.w3.org/2000/svg" width="920" height="470" viewBox="0 0 920 470">
<defs>
  <marker id="arr" viewBox="0 0 10 10" refX="9" refY="5" markerWidth="7" markerHeight="7" orient="auto-start-reverse">
    <path d="M 0 0 L 10 5 L 0 10 z" fill="context-stroke"/>
  </marker>
</defs>
<rect width="920" height="470" fill="#ffffff"/>
<rect x="20" y="52" width="430" height="330" rx="10" fill="#fafbfd" stroke="#94a3b8"/><text x="36" y="34" font-family="ui-sans-serif, system-ui, -apple-system, sans-serif" font-size="16" fill="#1e293b" text-anchor="start" font-weight="600" >Old near field: one centroid, radial force</text><text x="36" y="406" font-family="ui-sans-serif, system-ui, -apple-system, sans-serif" font-size="12.5" fill="#64748b" text-anchor="start" font-weight="normal" >Every force line passes through one point — no sideways</text><text x="36" y="423" font-family="ui-sans-serif, system-ui, -apple-system, sans-serif" font-size="12.5" fill="#64748b" text-anchor="start" font-weight="normal" >push, so a dense clump can only inflate, never rearrange.</text><circle cx="235.2" cy="210.8" r="7" fill="#e05555"/><text x="247.2" y="214.8" font-family="ui-sans-serif, system-ui, -apple-system, sans-serif" font-size="12" fill="#e05555" text-anchor="start" font-weight="normal" >cell centroid</text><line x1="235.2" y1="210.8" x2="183" y2="197" stroke="#fbdada" stroke-width="1.5"/><line x1="183.0" y1="197.0" x2="150.1" y2="188.3" stroke="#e05555" stroke-width="2.5" marker-end="url(#arr)" /><circle cx="183" cy="197" r="5" fill="#0f172a"/><line x1="235.2" y1="210.8" x2="205" y2="249" stroke="#fbdada" stroke-width="1.5"/><line x1="205.0" y1="249.0" x2="183.9" y2="275.7" stroke="#e05555" stroke-width="2.5" marker-end="url(#arr)" /><circle cx="205" cy="249" r="5" fill="#0f172a"/><line x1="235.2" y1="210.8" x2="227" y2="171" stroke="#fbdada" stroke-width="1.5"/><line x1="227.0" y1="171.0" x2="220.1" y2="137.7" stroke="#e05555" stroke-width="2.5" marker-end="url(#arr)" /><circle cx="227" cy="171" r="5" fill="#0f172a"/><line x1="235.2" y1="210.8" x2="251" y2="203" stroke="#fbdada" stroke-width="1.5"/><line x1="251.0" y1="203.0" x2="281.5" y2="187.9" stroke="#e05555" stroke-width="2.5" marker-end="url(#arr)" /><circle cx="251" cy="203" r="5" fill="#0f172a"/><line x1="235.2" y1="210.8" x2="277" y2="181" stroke="#fbdada" stroke-width="1.5"/><line x1="277.0" y1="181.0" x2="304.7" y2="161.3" stroke="#e05555" stroke-width="2.5" marker-end="url(#arr)" /><circle cx="277" cy="181" r="5" fill="#0f172a"/><line x1="235.2" y1="210.8" x2="285" y2="237" stroke="#fbdada" stroke-width="1.5"/><line x1="285.0" y1="237.0" x2="315.1" y2="252.8" stroke="#e05555" stroke-width="2.5" marker-end="url(#arr)" /><circle cx="285" cy="237" r="5" fill="#0f172a"/><line x1="235.2" y1="210.8" x2="247" y2="261" stroke="#fbdada" stroke-width="1.5"/><line x1="247.0" y1="261.0" x2="254.8" y2="294.1" stroke="#e05555" stroke-width="2.5" marker-end="url(#arr)" /><circle cx="247" cy="261" r="5" fill="#0f172a"/><line x1="235.2" y1="210.8" x2="217" y2="221" stroke="#fbdada" stroke-width="1.5"/><line x1="217.0" y1="221.0" x2="187.3" y2="237.6" stroke="#e05555" stroke-width="2.5" marker-end="url(#arr)" /><circle cx="217" cy="221" r="5" fill="#0f172a"/><line x1="235.2" y1="210.8" x2="269" y2="219" stroke="#fbdada" stroke-width="1.5"/><line x1="269.0" y1="219.0" x2="302.0" y2="227.0" stroke="#e05555" stroke-width="2.5" marker-end="url(#arr)" /><circle cx="269" cy="219" r="5" fill="#0f172a"/><line x1="235.2" y1="210.8" x2="191" y2="169" stroke="#fbdada" stroke-width="1.5"/><line x1="191.0" y1="169.0" x2="166.3" y2="145.6" stroke="#e05555" stroke-width="2.5" marker-end="url(#arr)" /><circle cx="191" cy="169" r="5" fill="#0f172a"/><rect x="470" y="52" width="430" height="330" rx="10" fill="#fafbfd" stroke="#94a3b8"/><text x="486" y="34" font-family="ui-sans-serif, system-ui, -apple-system, sans-serif" font-size="16" fill="#1e293b" text-anchor="start" font-weight="600" >New near field: individual sampled pairs</text><text x="486" y="406" font-family="ui-sans-serif, system-ui, -apple-system, sans-serif" font-size="12.5" fill="#64748b" text-anchor="start" font-weight="normal" >Each neighbor pushes from its own direction — the</text><text x="486" y="423" font-family="ui-sans-serif, system-ui, -apple-system, sans-serif" font-size="12.5" fill="#64748b" text-anchor="start" font-weight="normal" >tangential component spreads the clump apart.</text><circle cx="633" cy="197" r="5" fill="#3a86ff"/><line x1="633" y1="197" x2="667" y2="221" stroke="#d7e6ff" stroke-width="1.5"/><line x1="667.0" y1="221.0" x2="688.2" y2="236.0" stroke="#3a86ff" stroke-width="2" marker-end="url(#arr)" /><circle cx="655" cy="249" r="5" fill="#b9c3d3"/><circle cx="677" cy="171" r="5" fill="#3a86ff"/><line x1="677" y1="171" x2="667" y2="221" stroke="#d7e6ff" stroke-width="1.5"/><line x1="667.0" y1="221.0" x2="661.9" y2="246.5" stroke="#3a86ff" stroke-width="2" marker-end="url(#arr)" /><circle cx="701" cy="203" r="5" fill="#3a86ff"/><line x1="701" y1="203" x2="667" y2="221" stroke="#d7e6ff" stroke-width="1.5"/><line x1="667.0" y1="221.0" x2="644.0" y2="233.2" stroke="#3a86ff" stroke-width="2" marker-end="url(#arr)" /><circle cx="727" cy="181" r="5" fill="#b9c3d3"/><circle cx="735" cy="237" r="5" fill="#b9c3d3"/><circle cx="697" cy="261" r="5" fill="#3a86ff"/><line x1="697" y1="261" x2="667" y2="221" stroke="#d7e6ff" stroke-width="1.5"/><line x1="667.0" y1="221.0" x2="651.4" y2="200.2" stroke="#3a86ff" stroke-width="2" marker-end="url(#arr)" /><circle cx="719" cy="219" r="5" fill="#b9c3d3"/><circle cx="641" cy="169" r="5" fill="#3a86ff"/><line x1="641" y1="169" x2="667" y2="221" stroke="#d7e6ff" stroke-width="1.5"/><line x1="667.0" y1="221.0" x2="678.6" y2="244.3" stroke="#3a86ff" stroke-width="2" marker-end="url(#arr)" /><line x1="667.0" y1="221.0" x2="657.0" y2="272.0" stroke="#7c3aed" stroke-width="3.5" marker-end="url(#arr)" /><circle cx="667" cy="221" r="6.5" fill="#0f172a" stroke="#7c3aed" stroke-width="2.5"/><text x="664.9916913591762" y="276.02777437974356" font-family="ui-sans-serif, system-ui, -apple-system, sans-serif" font-size="12" fill="#7c3aed" text-anchor="start" font-weight="normal" >weighted sum</text><text x="485" y="370" font-family="ui-sans-serif, system-ui, -apple-system, sans-serif" font-size="12" fill="#3a86ff" text-anchor="start" font-weight="normal" >sampled neighbor</text><circle cx="473" cy="366" r="5" fill="#3a86ff"/><text x="625" y="370" font-family="ui-sans-serif, system-ui, -apple-system, sans-serif" font-size="12" fill="#64748b" text-anchor="start" font-weight="normal" >not sampled this tick</text><circle cx="613" cy="366" r="5" fill="#b9c3d3"/>
</svg>