<svg xmlns="http://www.w3.org/2000/svg" width="980" height="460" viewBox="0 0 980 460">
<defs>
  <marker id="arr" viewBox="0 0 10 10" refX="9" refY="5" markerWidth="7" markerHeight="7" orient="auto-start-reverse">
    <path d="M 0 0 L 10 5 L 0 10 z" fill="context-stroke"/>
  </marker>
</defs>
<rect width="980" height="460" fill="#ffffff"/>
<rect x="26.0" y="78.0" width="66.0" height="66.0" fill="#d7e6ff" stroke="#cbd5e1" stroke-width="0.7"/><rect x="92.0" y="78.0" width="66.0" height="66.0" fill="#eef1f5" stroke="#cbd5e1" stroke-width="0.7"/><rect x="158.0" y="78.0" width="66.0" height="66.0" fill="#eef1f5" stroke="#cbd5e1" stroke-width="0.7"/><rect x="224.0" y="78.0" width="66.0" height="66.0" fill="#eef1f5" stroke="#cbd5e1" stroke-width="0.7"/><rect x="26.0" y="144.0" width="66.0" height="66.0" fill="#d7e6ff" stroke="#cbd5e1" stroke-width="0.7"/><rect x="92.0" y="144.0" width="66.0" height="66.0" fill="#eef1f5" stroke="#cbd5e1" stroke-width="0.7"/><rect x="158.0" y="144.0" width="66.0" height="66.0" fill="#eef1f5" stroke="#cbd5e1" stroke-width="0.7"/><rect x="224.0" y="144.0" width="66.0" height="66.0" fill="#eef1f5" stroke="#cbd5e1" stroke-width="0.7"/><rect x="26.0" y="210.0" width="66.0" height="66.0" fill="#d7e6ff" stroke="#cbd5e1" stroke-width="0.7"/><rect x="92.0" y="210.0" width="66.0" height="66.0" fill="#eef1f5" stroke="#cbd5e1" stroke-width="0.7"/><rect x="158.0" y="210.0" width="66.0" height="66.0" fill="#eef1f5" stroke="#cbd5e1" stroke-width="0.7"/><rect x="224.0" y="210.0" width="66.0" height="66.0" fill="#eef1f5" stroke="#cbd5e1" stroke-width="0.7"/><rect x="26.0" y="276.0" width="66.0" height="66.0" fill="#d7e6ff" stroke="#cbd5e1" stroke-width="0.7"/><rect x="92.0" y="276.0" width="66.0" height="66.0" fill="#d7e6ff" stroke="#cbd5e1" stroke-width="0.7"/><rect x="158.0" y="276.0" width="66.0" height="66.0" fill="#d7e6ff" stroke="#cbd5e1" stroke-width="0.7"/><rect x="224.0" y="276.0" width="66.0" height="66.0" fill="#d7e6ff" stroke="#cbd5e1" stroke-width="0.7"/><rect x="26" y="78" width="264" height="264" fill="none" stroke="#94a3b8" stroke-width="1.4"/><circle cx="179.11999999999998" cy="173.04" r="5" fill="#0f172a"/><text x="158" y="40" font-family="ui-sans-serif, system-ui, -apple-system, sans-serif" font-size="15" fill="#1e293b" text-anchor="middle" font-weight="600" >Level 0: 4 × 4 cells</text><text x="158" y="60" font-family="ui-sans-serif, system-ui, -apple-system, sans-serif" font-size="11.5" fill="#64748b" text-anchor="middle" font-weight="normal" >whole space minus the 3×3 shell</text><rect x="26" y="356" width="14" height="14" fill="#d7e6ff" stroke="#cbd5e1"/><text x="46" y="367" font-family="ui-sans-serif, system-ui, -apple-system, sans-serif" font-size="12" fill="#1e293b" text-anchor="start" font-weight="normal" >centroid force at this level</text><rect x="26" y="378" width="14" height="14" fill="#eef1f5" stroke="#cbd5e1"/><text x="46" y="389" font-family="ui-sans-serif, system-ui, -apple-system, sans-serif" font-size="12" fill="#1e293b" text-anchor="start" font-weight="normal" >3×3 → deferred to the next level</text><line x1="304.0" y1="210.0" x2="334.0" y2="210.0" stroke="#94a3b8" stroke-width="2.5" marker-end="url(#arr)" /><rect x="346.0" y="78.0" width="33.0" height="33.0" fill="#ffffff" stroke="#cbd5e1" stroke-width="0.7"/><rect x="379.0" y="78.0" width="33.0" height="33.0" fill="#ffffff" stroke="#cbd5e1" stroke-width="0.7"/><rect x="412.0" y="78.0" width="33.0" height="33.0" fill="#d3ece9" stroke="#cbd5e1" stroke-width="0.7"/><rect x="445.0" y="78.0" width="33.0" height="33.0" fill="#d3ece9" stroke="#cbd5e1" stroke-width="0.7"/><rect x="478.0" y="78.0" width="33.0" height="33.0" fill="#d3ece9" stroke="#cbd5e1" stroke-width="0.7"/><rect x="511.0" y="78.0" width="33.0" height="33.0" fill="#d3ece9" stroke="#cbd5e1" stroke-width="0.7"/><rect x="544.0" y="78.0" width="33.0" height="33.0" fill="#d3ece9" stroke="#cbd5e1" stroke-width="0.7"/><rect x="577.0" y="78.0" width="33.0" height="33.0" fill="#d3ece9" stroke="#cbd5e1" stroke-width="0.7"/><rect x="346.0" y="111.0" width="33.0" height="33.0" fill="#ffffff" stroke="#cbd5e1" stroke-width="0.7"/><rect x="379.0" y="111.0" width="33.0" height="33.0" fill="#ffffff" stroke="#cbd5e1" stroke-width="0.7"/><rect x="412.0" y="111.0" width="33.0" height="33.0" fill="#d3ece9" stroke="#cbd5e1" stroke-width="0.7"/><rect x="445.0" y="111.0" width="33.0" height="33.0" fill="#eef1f5" stroke="#cbd5e1" stroke-width="0.7"/><rect x="478.0" y="111.0" width="33.0" height="33.0" fill="#eef1f5" stroke="#cbd5e1" stroke-width="0.7"/><rect x="511.0" y="111.0" width="33.0" height="33.0" fill="#eef1f5" stroke="#cbd5e1" stroke-width="0.7"/><rect x="544.0" y="111.0" width="33.0" height="33.0" fill="#d3ece9" stroke="#cbd5e1" stroke-width="0.7"/><rect x="577.0" y="111.0" width="33.0" height="33.0" fill="#d3ece9" stroke="#cbd5e1" stroke-width="0.7"/><rect x="346.0" y="144.0" width="33.0" height="33.0" fill="#ffffff" stroke="#cbd5e1" stroke-width="0.7"/><rect x="379.0" y="144.0" width="33.0" height="33.0" fill="#ffffff" stroke="#cbd5e1" stroke-width="0.7"/><rect x="412.0" y="144.0" width="33.0" height="33.0" fill="#d3ece9" stroke="#cbd5e1" stroke-width="0.7"/><rect x="445.0" y="144.0" width="33.0" height="33.0" fill="#eef1f5" stroke="#cbd5e1" stroke-width="0.7"/><rect x="478.0" y="144.0" width="33.0" height="33.0" fill="#eef1f5" stroke="#cbd5e1" stroke-width="0.7"/><rect x="511.0" y="144.0" width="33.0" height="33.0" fill="#eef1f5" stroke="#cbd5e1" stroke-width="0.7"/><rect x="544.0" y="144.0" width="33.0" height="33.0" fill="#d3ece9" stroke="#cbd5e1" stroke-width="0.7"/><rect x="577.0" y="144.0" width="33.0" height="33.0" fill="#d3ece9" stroke="#cbd5e1" stroke-width="0.7"/><rect x="346.0" y="177.0" width="33.0" height="33.0" fill="#ffffff" stroke="#cbd5e1" stroke-width="0.7"/><rect x="379.0" y="177.0" width="33.0" height="33.0" fill="#ffffff" stroke="#cbd5e1" stroke-width="0.7"/><rect x="412.0" y="177.0" width="33.0" height="33.0" fill="#d3ece9" stroke="#cbd5e1" stroke-width="0.7"/><rect x="445.0" y="177.0" width="33.0" height="33.0" fill="#eef1f5" stroke="#cbd5e1" stroke-width="0.7"/><rect x="478.0" y="177.0" width="33.0" height="33.0" fill="#eef1f5" stroke="#cbd5e1" stroke-width="0.7"/><rect x="511.0" y="177.0" width="33.0" height="33.0" fill="#eef1f5" stroke="#cbd5e1" stroke-width="0.7"/><rect x="544.0" y="177.0" width="33.0" height="33.0" fill="#d3ece9" stroke="#cbd5e1" stroke-width="0.7"/><rect x="577.0" y="177.0" width="33.0" height="33.0" fill="#d3ece9" stroke="#cbd5e1" stroke-width="0.7"/><rect x="346.0" y="210.0" width="33.0" height="33.0" fill="#ffffff" stroke="#cbd5e1" stroke-width="0.7"/><rect x="379.0" y="210.0" width="33.0" height="33.0" fill="#ffffff" stroke="#cbd5e1" stroke-width="0.7"/><rect x="412.0" y="210.0" width="33.0" height="33.0" fill="#d3ece9" stroke="#cbd5e1" stroke-width="0.7"/><rect x="445.0" y="210.0" width="33.0" height="33.0" fill="#d3ece9" stroke="#cbd5e1" stroke-width="0.7"/><rect x="478.0" y="210.0" width="33.0" height="33.0" fill="#d3ece9" stroke="#cbd5e1" stroke-width="0.7"/><rect x="511.0" y="210.0" width="33.0" height="33.0" fill="#d3ece9" stroke="#cbd5e1" stroke-width="0.7"/><rect x="544.0" y="210.0" width="33.0" height="33.0" fill="#d3ece9" stroke="#cbd5e1" stroke-width="0.7"/><rect x="577.0" y="210.0" width="33.0" height="33.0" fill="#d3ece9" stroke="#cbd5e1" stroke-width="0.7"/><rect x="346.0" y="243.0" width="33.0" height="33.0" fill="#ffffff" stroke="#cbd5e1" stroke-width="0.7"/><rect x="379.0" y="243.0" width="33.0" height="33.0" fill="#ffffff" stroke="#cbd5e1" stroke-width="0.7"/><rect x="412.0" y="243.0" width="33.0" height="33.0" fill="#d3ece9" stroke="#cbd5e1" stroke-width="0.7"/><rect x="445.0" y="243.0" width="33.0" height="33.0" fill="#d3ece9" stroke="#cbd5e1" stroke-width="0.7"/><rect x="478.0" y="243.0" width="33.0" height="33.0" fill="#d3ece9" stroke="#cbd5e1" stroke-width="0.7"/><rect x="511.0" y="243.0" width="33.0" height="33.0" fill="#d3ece9" stroke="#cbd5e1" stroke-width="0.7"/><rect x="544.0" y="243.0" width="33.0" height="33.0" fill="#d3ece9" stroke="#cbd5e1" stroke-width="0.7"/><rect x="577.0" y="243.0" width="33.0" height="33.0" fill="#d3ece9" stroke="#cbd5e1" stroke-width="0.7"/><rect x="346.0" y="276.0" width="33.0" height="33.0" fill="#ffffff" stroke="#cbd5e1" stroke-width="0.7"/><rect x="379.0" y="276.0" width="33.0" height="33.0" fill="#ffffff" stroke="#cbd5e1" stroke-width="0.7"/><rect x="412.0" y="276.0" width="33.0" height="33.0" fill="#ffffff" stroke="#cbd5e1" stroke-width="0.7"/><rect x="445.0" y="276.0" width="33.0" height="33.0" fill="#ffffff" stroke="#cbd5e1" stroke-width="0.7"/><rect x="478.0" y="276.0" width="33.0" height="33.0" fill="#ffffff" stroke="#cbd5e1" stroke-width="0.7"/><rect x="511.0" y="276.0" width="33.0" height="33.0" fill="#ffffff" stroke="#cbd5e1" stroke-width="0.7"/><rect x="544.0" y="276.0" width="33.0" height="33.0" fill="#ffffff" stroke="#cbd5e1" stroke-width="0.7"/><rect x="577.0" y="276.0" width="33.0" height="33.0" fill="#ffffff" stroke="#cbd5e1" stroke-width="0.7"/><rect x="346.0" y="309.0" width="33.0" height="33.0" fill="#ffffff" stroke="#cbd5e1" stroke-width="0.7"/><rect x="379.0" y="309.0" width="33.0" height="33.0" fill="#ffffff" stroke="#cbd5e1" stroke-width="0.7"/><rect x="412.0" y="309.0" width="33.0" height="33.0" fill="#ffffff" stroke="#cbd5e1" stroke-width="0.7"/><rect x="445.0" y="309.0" width="33.0" height="33.0" fill="#ffffff" stroke="#cbd5e1" stroke-width="0.7"/><rect x="478.0" y="309.0" width="33.0" height="33.0" fill="#ffffff" stroke="#cbd5e1" stroke-width="0.7"/><rect x="511.0" y="309.0" width="33.0" height="33.0" fill="#ffffff" stroke="#cbd5e1" stroke-width="0.7"/><rect x="544.0" y="309.0" width="33.0" height="33.0" fill="#ffffff" stroke="#cbd5e1" stroke-width="0.7"/><rect x="577.0" y="309.0" width="33.0" height="33.0" fill="#ffffff" stroke="#cbd5e1" stroke-width="0.7"/><rect x="346" y="78" width="264" height="264" fill="none" stroke="#94a3b8" stroke-width="1.4"/><circle cx="499.12" cy="173.04" r="5" fill="#0f172a"/><text x="478" y="40" font-family="ui-sans-serif, system-ui, -apple-system, sans-serif" font-size="15" fill="#1e293b" text-anchor="middle" font-weight="600" >Level 1: 8 × 8 cells</text><text x="478" y="60" font-family="ui-sans-serif, system-ui, -apple-system, sans-serif" font-size="11.5" fill="#64748b" text-anchor="middle" font-weight="normal" >previous 3×3 refined, minus its own 3×3</text><rect x="346" y="356" width="14" height="14" fill="#d3ece9" stroke="#cbd5e1"/><text x="366" y="367" font-family="ui-sans-serif, system-ui, -apple-system, sans-serif" font-size="12" fill="#1e293b" text-anchor="start" font-weight="normal" >centroid force at this level</text><rect x="346" y="378" width="14" height="14" fill="#eef1f5" stroke="#cbd5e1"/><text x="366" y="389" font-family="ui-sans-serif, system-ui, -apple-system, sans-serif" font-size="12" fill="#1e293b" text-anchor="start" font-weight="normal" >3×3 → deferred to the next level</text><line x1="624.0" y1="210.0" x2="654.0" y2="210.0" stroke="#94a3b8" stroke-width="2.5" marker-end="url(#arr)" /><rect x="666.0" y="78.0" width="16.5" height="16.5" fill="#ffffff" stroke="#cbd5e1" stroke-width="0.7"/><rect x="682.5" y="78.0" width="16.5" height="16.5" fill="#ffffff" stroke="#cbd5e1" stroke-width="0.7"/><rect x="699.0" y="78.0" width="16.5" height="16.5" fill="#ffffff" stroke="#cbd5e1" stroke-width="0.7"/><rect x="715.5" y="78.0" width="16.5" height="16.5" fill="#ffffff" stroke="#cbd5e1" stroke-width="0.7"/><rect x="732.0" y="78.0" width="16.5" height="16.5" fill="#ffffff" stroke="#cbd5e1" stroke-width="0.7"/><rect x="748.5" y="78.0" width="16.5" height="16.5" fill="#ffffff" stroke="#cbd5e1" stroke-width="0.7"/><rect x="765.0" y="78.0" width="16.5" height="16.5" fill="#ffffff" stroke="#cbd5e1" stroke-width="0.7"/><rect x="781.5" y="78.0" width="16.5" height="16.5" fill="#ffffff" stroke="#cbd5e1" stroke-width="0.7"/><rect x="798.0" y="78.0" width="16.5" height="16.5" fill="#ffffff" stroke="#cbd5e1" stroke-width="0.7"/><rect x="814.5" y="78.0" width="16.5" height="16.5" fill="#ffffff" stroke="#cbd5e1" stroke-width="0.7"/><rect x="831.0" y="78.0" width="16.5" height="16.5" fill="#ffffff" stroke="#cbd5e1" stroke-width="0.7"/><rect x="847.5" y="78.0" width="16.5" height="16.5" fill="#ffffff" stroke="#cbd5e1" stroke-width="0.7"/><rect x="864.0" y="78.0" width="16.5" height="16.5" fill="#ffffff" stroke="#cbd5e1" stroke-width="0.7"/><rect x="880.5" y="78.0" width="16.5" height="16.5" fill="#ffffff" stroke="#cbd5e1" stroke-width="0.7"/><rect x="897.0" y="78.0" width="16.5" height="16.5" fill="#ffffff" stroke="#cbd5e1" stroke-width="0.7"/><rect x="913.5" y="78.0" width="16.5" height="16.5" fill="#ffffff" stroke="#cbd5e1" stroke-width="0.7"/><rect x="666.0" y="94.5" width="16.5" height="16.5" fill="#ffffff" stroke="#cbd5e1" stroke-width="0.7"/><rect x="682.5" y="94.5" width="16.5" height="16.5" fill="#ffffff" stroke="#cbd5e1" stroke-width="0.7"/><rect x="699.0" y="94.5" width="16.5" height="16.5" fill="#ffffff" stroke="#cbd5e1" stroke-width="0.7"/><rect x="715.5" y="94.5" width="16.5" height="16.5" fill="#ffffff" stroke="#cbd5e1" stroke-width="0.7"/><rect x="732.0" y="94.5" width="16.5" height="16.5" fill="#ffffff" stroke="#cbd5e1" stroke-width="0.7"/><rect x="748.5" y="94.5" width="16.5" height="16.5" fill="#ffffff" stroke="#cbd5e1" stroke-width="0.7"/><rect x="765.0" y="94.5" width="16.5" height="16.5" fill="#ffffff" stroke="#cbd5e1" stroke-width="0.7"/><rect x="781.5" y="94.5" width="16.5" height="16.5" fill="#ffffff" stroke="#cbd5e1" stroke-width="0.7"/><rect x="798.0" y="94.5" width="16.5" height="16.5" fill="#ffffff" stroke="#cbd5e1" stroke-width="0.7"/><rect x="814.5" y="94.5" width="16.5" height="16.5" fill="#ffffff" stroke="#cbd5e1" stroke-width="0.7"/><rect x="831.0" y="94.5" width="16.5" height="16.5" fill="#ffffff" stroke="#cbd5e1" stroke-width="0.7"/><rect x="847.5" y="94.5" width="16.5" height="16.5" fill="#ffffff" stroke="#cbd5e1" stroke-width="0.7"/><rect x="864.0" y="94.5" width="16.5" height="16.5" fill="#ffffff" stroke="#cbd5e1" stroke-width="0.7"/><rect x="880.5" y="94.5" width="16.5" height="16.5" fill="#ffffff" stroke="#cbd5e1" stroke-width="0.7"/><rect x="897.0" y="94.5" width="16.5" height="16.5" fill="#ffffff" stroke="#cbd5e1" stroke-width="0.7"/><rect x="913.5" y="94.5" width="16.5" height="16.5" fill="#ffffff" stroke="#cbd5e1" stroke-width="0.7"/><rect x="666.0" y="111.0" width="16.5" height="16.5" fill="#ffffff" stroke="#cbd5e1" stroke-width="0.7"/><rect x="682.5" y="111.0" width="16.5" height="16.5" fill="#ffffff" stroke="#cbd5e1" stroke-width="0.7"/><rect x="699.0" y="111.0" width="16.5" height="16.5" fill="#ffffff" stroke="#cbd5e1" stroke-width="0.7"/><rect x="715.5" y="111.0" width="16.5" height="16.5" fill="#ffffff" stroke="#cbd5e1" stroke-width="0.7"/><rect x="732.0" y="111.0" width="16.5" height="16.5" fill="#ffffff" stroke="#cbd5e1" stroke-width="0.7"/><rect x="748.5" y="111.0" width="16.5" height="16.5" fill="#ffffff" stroke="#cbd5e1" stroke-width="0.7"/><rect x="765.0" y="111.0" width="16.5" height="16.5" fill="#fae8cd" stroke="#cbd5e1" stroke-width="0.7"/><rect x="781.5" y="111.0" width="16.5" height="16.5" fill="#fae8cd" stroke="#cbd5e1" stroke-width="0.7"/><rect x="798.0" y="111.0" width="16.5" height="16.5" fill="#fae8cd" stroke="#cbd5e1" stroke-width="0.7"/><rect x="814.5" y="111.0" width="16.5" height="16.5" fill="#fae8cd" stroke="#cbd5e1" stroke-width="0.7"/><rect x="831.0" y="111.0" width="16.5" height="16.5" fill="#fae8cd" stroke="#cbd5e1" stroke-width="0.7"/><rect x="847.5" y="111.0" width="16.5" height="16.5" fill="#fae8cd" stroke="#cbd5e1" stroke-width="0.7"/><rect x="864.0" y="111.0" width="16.5" height="16.5" fill="#ffffff" stroke="#cbd5e1" stroke-width="0.7"/><rect x="880.5" y="111.0" width="16.5" height="16.5" fill="#ffffff" stroke="#cbd5e1" stroke-width="0.7"/><rect x="897.0" y="111.0" width="16.5" height="16.5" fill="#ffffff" stroke="#cbd5e1" stroke-width="0.7"/><rect x="913.5" y="111.0" width="16.5" height="16.5" fill="#ffffff" stroke="#cbd5e1" stroke-width="0.7"/><rect x="666.0" y="127.5" width="16.5" height="16.5" fill="#ffffff" stroke="#cbd5e1" stroke-width="0.7"/><rect x="682.5" y="127.5" width="16.5" height="16.5" fill="#ffffff" stroke="#cbd5e1" stroke-width="0.7"/><rect x="699.0" y="127.5" width="16.5" height="16.5" fill="#ffffff" stroke="#cbd5e1" stroke-width="0.7"/><rect x="715.5" y="127.5" width="16.5" height="16.5" fill="#ffffff" stroke="#cbd5e1" stroke-width="0.7"/><rect x="732.0" y="127.5" width="16.5" height="16.5" fill="#ffffff" stroke="#cbd5e1" stroke-width="0.7"/><rect x="748.5" y="127.5" width="16.5" height="16.5" fill="#ffffff" stroke="#cbd5e1" stroke-width="0.7"/><rect x="765.0" y="127.5" width="16.5" height="16.5" fill="#fae8cd" stroke="#cbd5e1" stroke-width="0.7"/><rect x="781.5" y="127.5" width="16.5" height="16.5" fill="#fae8cd" stroke="#cbd5e1" stroke-width="0.7"/><rect x="798.0" y="127.5" width="16.5" height="16.5" fill="#fae8cd" stroke="#cbd5e1" stroke-width="0.7"/><rect x="814.5" y="127.5" width="16.5" height="16.5" fill="#fae8cd" stroke="#cbd5e1" stroke-width="0.7"/><rect x="831.0" y="127.5" width="16.5" height="16.5" fill="#fae8cd" stroke="#cbd5e1" stroke-width="0.7"/><rect x="847.5" y="127.5" width="16.5" height="16.5" fill="#fae8cd" stroke="#cbd5e1" stroke-width="0.7"/><rect x="864.0" y="127.5" width="16.5" height="16.5" fill="#ffffff" stroke="#cbd5e1" stroke-width="0.7"/><rect x="880.5" y="127.5" width="16.5" height="16.5" fill="#ffffff" stroke="#cbd5e1" stroke-width="0.7"/><rect x="897.0" y="127.5" width="16.5" height="16.5" fill="#ffffff" stroke="#cbd5e1" stroke-width="0.7"/><rect x="913.5" y="127.5" width="16.5" height="16.5" fill="#ffffff" stroke="#cbd5e1" stroke-width="0.7"/><rect x="666.0" y="144.0" width="16.5" height="16.5" fill="#ffffff" stroke="#cbd5e1" stroke-width="0.7"/><rect x="682.5" y="144.0" width="16.5" height="16.5" fill="#ffffff" stroke="#cbd5e1" stroke-width="0.7"/><rect x="699.0" y="144.0" width="16.5" height="16.5" fill="#ffffff" stroke="#cbd5e1" stroke-width="0.7"/><rect x="715.5" y="144.0" width="16.5" height="16.5" fill="#ffffff" stroke="#cbd5e1" stroke-width="0.7"/><rect x="732.0" y="144.0" width="16.5" height="16.5" fill="#ffffff" stroke="#cbd5e1" stroke-width="0.7"/><rect x="748.5" y="144.0" width="16.5" height="16.5" fill="#ffffff" stroke="#cbd5e1" stroke-width="0.7"/><rect x="765.0" y="144.0" width="16.5" height="16.5" fill="#fae8cd" stroke="#cbd5e1" stroke-width="0.7"/><rect x="781.5" y="144.0" width="16.5" height="16.5" fill="#fae8cd" stroke="#cbd5e1" stroke-width="0.7"/><rect x="798.0" y="144.0" width="16.5" height="16.5" fill="#fbdada" stroke="#cbd5e1" stroke-width="0.7"/><rect x="814.5" y="144.0" width="16.5" height="16.5" fill="#fbdada" stroke="#cbd5e1" stroke-width="0.7"/><rect x="831.0" y="144.0" width="16.5" height="16.5" fill="#fbdada" stroke="#cbd5e1" stroke-width="0.7"/><rect x="847.5" y="144.0" width="16.5" height="16.5" fill="#fae8cd" stroke="#cbd5e1" stroke-width="0.7"/><rect x="864.0" y="144.0" width="16.5" height="16.5" fill="#ffffff" stroke="#cbd5e1" stroke-width="0.7"/><rect x="880.5" y="144.0" width="16.5" height="16.5" fill="#ffffff" stroke="#cbd5e1" stroke-width="0.7"/><rect x="897.0" y="144.0" width="16.5" height="16.5" fill="#ffffff" stroke="#cbd5e1" stroke-width="0.7"/><rect x="913.5" y="144.0" width="16.5" height="16.5" fill="#ffffff" stroke="#cbd5e1" stroke-width="0.7"/><rect x="666.0" y="160.5" width="16.5" height="16.5" fill="#ffffff" stroke="#cbd5e1" stroke-width="0.7"/><rect x="682.5" y="160.5" width="16.5" height="16.5" fill="#ffffff" stroke="#cbd5e1" stroke-width="0.7"/><rect x="699.0" y="160.5" width="16.5" height="16.5" fill="#ffffff" stroke="#cbd5e1" stroke-width="0.7"/><rect x="715.5" y="160.5" width="16.5" height="16.5" fill="#ffffff" stroke="#cbd5e1" stroke-width="0.7"/><rect x="732.0" y="160.5" width="16.5" height="16.5" fill="#ffffff" stroke="#cbd5e1" stroke-width="0.7"/><rect x="748.5" y="160.5" width="16.5" height="16.5" fill="#ffffff" stroke="#cbd5e1" stroke-width="0.7"/><rect x="765.0" y="160.5" width="16.5" height="16.5" fill="#fae8cd" stroke="#cbd5e1" stroke-width="0.7"/><rect x="781.5" y="160.5" width="16.5" height="16.5" fill="#fae8cd" stroke="#cbd5e1" stroke-width="0.7"/><rect x="798.0" y="160.5" width="16.5" height="16.5" fill="#fbdada" stroke="#cbd5e1" stroke-width="0.7"/><rect x="814.5" y="160.5" width="16.5" height="16.5" fill="#fbdada" stroke="#cbd5e1" stroke-width="0.7"/><rect x="831.0" y="160.5" width="16.5" height="16.5" fill="#fbdada" stroke="#cbd5e1" stroke-width="0.7"/><rect x="847.5" y="160.5" width="16.5" height="16.5" fill="#fae8cd" stroke="#cbd5e1" stroke-width="0.7"/><rect x="864.0" y="160.5" width="16.5" height="16.5" fill="#ffffff" stroke="#cbd5e1" stroke-width="0.7"/><rect x="880.5" y="160.5" width="16.5" height="16.5" fill="#ffffff" stroke="#cbd5e1" stroke-width="0.7"/><rect x="897.0" y="160.5" width="16.5" height="16.5" fill="#ffffff" stroke="#cbd5e1" stroke-width="0.7"/><rect x="913.5" y="160.5" width="16.5" height="16.5" fill="#ffffff" stroke="#cbd5e1" stroke-width="0.7"/><rect x="666.0" y="177.0" width="16.5" height="16.5" fill="#ffffff" stroke="#cbd5e1" stroke-width="0.7"/><rect x="682.5" y="177.0" width="16.5" height="16.5" fill="#ffffff" stroke="#cbd5e1" stroke-width="0.7"/><rect x="699.0" y="177.0" width="16.5" height="16.5" fill="#ffffff" stroke="#cbd5e1" stroke-width="0.7"/><rect x="715.5" y="177.0" width="16.5" height="16.5" fill="#ffffff" stroke="#cbd5e1" stroke-width="0.7"/><rect x="732.0" y="177.0" width="16.5" height="16.5" fill="#ffffff" stroke="#cbd5e1" stroke-width="0.7"/><rect x="748.5" y="177.0" width="16.5" height="16.5" fill="#ffffff" stroke="#cbd5e1" stroke-width="0.7"/><rect x="765.0" y="177.0" width="16.5" height="16.5" fill="#fae8cd" stroke="#cbd5e1" stroke-width="0.7"/><rect x="781.5" y="177.0" width="16.5" height="16.5" fill="#fae8cd" stroke="#cbd5e1" stroke-width="0.7"/><rect x="798.0" y="177.0" width="16.5" height="16.5" fill="#fbdada" stroke="#cbd5e1" stroke-width="0.7"/><rect x="814.5" y="177.0" width="16.5" height="16.5" fill="#fbdada" stroke="#cbd5e1" stroke-width="0.7"/><rect x="831.0" y="177.0" width="16.5" height="16.5" fill="#fbdada" stroke="#cbd5e1" stroke-width="0.7"/><rect x="847.5" y="177.0" width="16.5" height="16.5" fill="#fae8cd" stroke="#cbd5e1" stroke-width="0.7"/><rect x="864.0" y="177.0" width="16.5" height="16.5" fill="#ffffff" stroke="#cbd5e1" stroke-width="0.7"/><rect x="880.5" y="177.0" width="16.5" height="16.5" fill="#ffffff" stroke="#cbd5e1" stroke-width="0.7"/><rect x="897.0" y="177.0" width="16.5" height="16.5" fill="#ffffff" stroke="#cbd5e1" stroke-width="0.7"/><rect x="913.5" y="177.0" width="16.5" height="16.5" fill="#ffffff" stroke="#cbd5e1" stroke-width="0.7"/><rect x="666.0" y="193.5" width="16.5" height="16.5" fill="#ffffff" stroke="#cbd5e1" stroke-width="0.7"/><rect x="682.5" y="193.5" width="16.5" height="16.5" fill="#ffffff" stroke="#cbd5e1" stroke-width="0.7"/><rect x="699.0" y="193.5" width="16.5" height="16.5" fill="#ffffff" stroke="#cbd5e1" stroke-width="0.7"/><rect x="715.5" y="193.5" width="16.5" height="16.5" fill="#ffffff" stroke="#cbd5e1" stroke-width="0.7"/><rect x="732.0" y="193.5" width="16.5" height="16.5" fill="#ffffff" stroke="#cbd5e1" stroke-width="0.7"/><rect x="748.5" y="193.5" width="16.5" height="16.5" fill="#ffffff" stroke="#cbd5e1" stroke-width="0.7"/><rect x="765.0" y="193.5" width="16.5" height="16.5" fill="#fae8cd" stroke="#cbd5e1" stroke-width="0.7"/><rect x="781.5" y="193.5" width="16.5" height="16.5" fill="#fae8cd" stroke="#cbd5e1" stroke-width="0.7"/><rect x="798.0" y="193.5" width="16.5" height="16.5" fill="#fae8cd" stroke="#cbd5e1" stroke-width="0.7"/><rect x="814.5" y="193.5" width="16.5" height="16.5" fill="#fae8cd" stroke="#cbd5e1" stroke-width="0.7"/><rect x="831.0" y="193.5" width="16.5" height="16.5" fill="#fae8cd" stroke="#cbd5e1" stroke-width="0.7"/><rect x="847.5" y="193.5" width="16.5" height="16.5" fill="#fae8cd" stroke="#cbd5e1" stroke-width="0.7"/><rect x="864.0" y="193.5" width="16.5" height="16.5" fill="#ffffff" stroke="#cbd5e1" stroke-width="0.7"/><rect x="880.5" y="193.5" width="16.5" height="16.5" fill="#ffffff" stroke="#cbd5e1" stroke-width="0.7"/><rect x="897.0" y="193.5" width="16.5" height="16.5" fill="#ffffff" stroke="#cbd5e1" stroke-width="0.7"/><rect x="913.5" y="193.5" width="16.5" height="16.5" fill="#ffffff" stroke="#cbd5e1" stroke-width="0.7"/><rect x="666.0" y="210.0" width="16.5" height="16.5" fill="#ffffff" stroke="#cbd5e1" stroke-width="0.7"/><rect x="682.5" y="210.0" width="16.5" height="16.5" fill="#ffffff" stroke="#cbd5e1" stroke-width="0.7"/><rect x="699.0" y="210.0" width="16.5" height="16.5" fill="#ffffff" stroke="#cbd5e1" stroke-width="0.7"/><rect x="715.5" y="210.0" width="16.5" height="16.5" fill="#ffffff" stroke="#cbd5e1" stroke-width="0.7"/><rect x="732.0" y="210.0" width="16.5" height="16.5" fill="#ffffff" stroke="#cbd5e1" stroke-width="0.7"/><rect x="748.5" y="210.0" width="16.5" height="16.5" fill="#ffffff" stroke="#cbd5e1" stroke-width="0.7"/><rect x="765.0" y="210.0" width="16.5" height="16.5" fill="#ffffff" stroke="#cbd5e1" stroke-width="0.7"/><rect x="781.5" y="210.0" width="16.5" height="16.5" fill="#ffffff" stroke="#cbd5e1" stroke-width="0.7"/><rect x="798.0" y="210.0" width="16.5" height="16.5" fill="#ffffff" stroke="#cbd5e1" stroke-width="0.7"/><rect x="814.5" y="210.0" width="16.5" height="16.5" fill="#ffffff" stroke="#cbd5e1" stroke-width="0.7"/><rect x="831.0" y="210.0" width="16.5" height="16.5" fill="#ffffff" stroke="#cbd5e1" stroke-width="0.7"/><rect x="847.5" y="210.0" width="16.5" height="16.5" fill="#ffffff" stroke="#cbd5e1" stroke-width="0.7"/><rect x="864.0" y="210.0" width="16.5" height="16.5" fill="#ffffff" stroke="#cbd5e1" stroke-width="0.7"/><rect x="880.5" y="210.0" width="16.5" height="16.5" fill="#ffffff" stroke="#cbd5e1" stroke-width="0.7"/><rect x="897.0" y="210.0" width="16.5" height="16.5" fill="#ffffff" stroke="#cbd5e1" stroke-width="0.7"/><rect x="913.5" y="210.0" width="16.5" height="16.5" fill="#ffffff" stroke="#cbd5e1" stroke-width="0.7"/><rect x="666.0" y="226.5" width="16.5" height="16.5" fill="#ffffff" stroke="#cbd5e1" stroke-width="0.7"/><rect x="682.5" y="226.5" width="16.5" height="16.5" fill="#ffffff" stroke="#cbd5e1" stroke-width="0.7"/><rect x="699.0" y="226.5" width="16.5" height="16.5" fill="#ffffff" stroke="#cbd5e1" stroke-width="0.7"/><rect x="715.5" y="226.5" width="16.5" height="16.5" fill="#ffffff" stroke="#cbd5e1" stroke-width="0.7"/><rect x="732.0" y="226.5" width="16.5" height="16.5" fill="#ffffff" stroke="#cbd5e1" stroke-width="0.7"/><rect x="748.5" y="226.5" width="16.5" height="16.5" fill="#ffffff" stroke="#cbd5e1" stroke-width="0.7"/><rect x="765.0" y="226.5" width="16.5" height="16.5" fill="#ffffff" stroke="#cbd5e1" stroke-width="0.7"/><rect x="781.5" y="226.5" width="16.5" height="16.5" fill="#ffffff" stroke="#cbd5e1" stroke-width="0.7"/><rect x="798.0" y="226.5" width="16.5" height="16.5" fill="#ffffff" stroke="#cbd5e1" stroke-width="0.7"/><rect x="814.5" y="226.5" width="16.5" height="16.5" fill="#ffffff" stroke="#cbd5e1" stroke-width="0.7"/><rect x="831.0" y="226.5" width="16.5" height="16.5" fill="#ffffff" stroke="#cbd5e1" stroke-width="0.7"/><rect x="847.5" y="226.5" width="16.5" height="16.5" fill="#ffffff" stroke="#cbd5e1" stroke-width="0.7"/><rect x="864.0" y="226.5" width="16.5" height="16.5" fill="#ffffff" stroke="#cbd5e1" stroke-width="0.7"/><rect x="880.5" y="226.5" width="16.5" height="16.5" fill="#ffffff" stroke="#cbd5e1" stroke-width="0.7"/><rect x="897.0" y="226.5" width="16.5" height="16.5" fill="#ffffff" stroke="#cbd5e1" stroke-width="0.7"/><rect x="913.5" y="226.5" width="16.5" height="16.5" fill="#ffffff" stroke="#cbd5e1" stroke-width="0.7"/><rect x="666.0" y="243.0" width="16.5" height="16.5" fill="#ffffff" stroke="#cbd5e1" stroke-width="0.7"/><rect x="682.5" y="243.0" width="16.5" height="16.5" fill="#ffffff" stroke="#cbd5e1" stroke-width="0.7"/><rect x="699.0" y="243.0" width="16.5" height="16.5" fill="#ffffff" stroke="#cbd5e1" stroke-width="0.7"/><rect x="715.5" y="243.0" width="16.5" height="16.5" fill="#ffffff" stroke="#cbd5e1" stroke-width="0.7"/><rect x="732.0" y="243.0" width="16.5" height="16.5" fill="#ffffff" stroke="#cbd5e1" stroke-width="0.7"/><rect x="748.5" y="243.0" width="16.5" height="16.5" fill="#ffffff" stroke="#cbd5e1" stroke-width="0.7"/><rect x="765.0" y="243.0" width="16.5" height="16.5" fill="#ffffff" stroke="#cbd5e1" stroke-width="0.7"/><rect x="781.5" y="243.0" width="16.5" height="16.5" fill="#ffffff" stroke="#cbd5e1" stroke-width="0.7"/><rect x="798.0" y="243.0" width="16.5" height="16.5" fill="#ffffff" stroke="#cbd5e1" stroke-width="0.7"/><rect x="814.5" y="243.0" width="16.5" height="16.5" fill="#ffffff" stroke="#cbd5e1" stroke-width="0.7"/><rect x="831.0" y="243.0" width="16.5" height="16.5" fill="#ffffff" stroke="#cbd5e1" stroke-width="0.7"/><rect x="847.5" y="243.0" width="16.5" height="16.5" fill="#ffffff" stroke="#cbd5e1" stroke-width="0.7"/><rect x="864.0" y="243.0" width="16.5" height="16.5" fill="#ffffff" stroke="#cbd5e1" stroke-width="0.7"/><rect x="880.5" y="243.0" width="16.5" height="16.5" fill="#ffffff" stroke="#cbd5e1" stroke-width="0.7"/><rect x="897.0" y="243.0" width="16.5" height="16.5" fill="#ffffff" stroke="#cbd5e1" stroke-width="0.7"/><rect x="913.5" y="243.0" width="16.5" height="16.5" fill="#ffffff" stroke="#cbd5e1" stroke-width="0.7"/><rect x="666.0" y="259.5" width="16.5" height="16.5" fill="#ffffff" stroke="#cbd5e1" stroke-width="0.7"/><rect x="682.5" y="259.5" width="16.5" height="16.5" fill="#ffffff" stroke="#cbd5e1" stroke-width="0.7"/><rect x="699.0" y="259.5" width="16.5" height="16.5" fill="#ffffff" stroke="#cbd5e1" stroke-width="0.7"/><rect x="715.5" y="259.5" width="16.5" height="16.5" fill="#ffffff" stroke="#cbd5e1" stroke-width="0.7"/><rect x="732.0" y="259.5" width="16.5" height="16.5" fill="#ffffff" stroke="#cbd5e1" stroke-width="0.7"/><rect x="748.5" y="259.5" width="16.5" height="16.5" fill="#ffffff" stroke="#cbd5e1" stroke-width="0.7"/><rect x="765.0" y="259.5" width="16.5" height="16.5" fill="#ffffff" stroke="#cbd5e1" stroke-width="0.7"/><rect x="781.5" y="259.5" width="16.5" height="16.5" fill="#ffffff" stroke="#cbd5e1" stroke-width="0.7"/><rect x="798.0" y="259.5" width="16.5" height="16.5" fill="#ffffff" stroke="#cbd5e1" stroke-width="0.7"/><rect x="814.5" y="259.5" width="16.5" height="16.5" fill="#ffffff" stroke="#cbd5e1" stroke-width="0.7"/><rect x="831.0" y="259.5" width="16.5" height="16.5" fill="#ffffff" stroke="#cbd5e1" stroke-width="0.7"/><rect x="847.5" y="259.5" width="16.5" height="16.5" fill="#ffffff" stroke="#cbd5e1" stroke-width="0.7"/><rect x="864.0" y="259.5" width="16.5" height="16.5" fill="#ffffff" stroke="#cbd5e1" stroke-width="0.7"/><rect x="880.5" y="259.5" width="16.5" height="16.5" fill="#ffffff" stroke="#cbd5e1" stroke-width="0.7"/><rect x="897.0" y="259.5" width="16.5" height="16.5" fill="#ffffff" stroke="#cbd5e1" stroke-width="0.7"/><rect x="913.5" y="259.5" width="16.5" height="16.5" fill="#ffffff" stroke="#cbd5e1" stroke-width="0.7"/><rect x="666.0" y="276.0" width="16.5" height="16.5" fill="#ffffff" stroke="#cbd5e1" stroke-width="0.7"/><rect x="682.5" y="276.0" width="16.5" height="16.5" fill="#ffffff" stroke="#cbd5e1" stroke-width="0.7"/><rect x="699.0" y="276.0" width="16.5" height="16.5" fill="#ffffff" stroke="#cbd5e1" stroke-width="0.7"/><rect x="715.5" y="276.0" width="16.5" height="16.5" fill="#ffffff" stroke="#cbd5e1" stroke-width="0.7"/><rect x="732.0" y="276.0" width="16.5" height="16.5" fill="#ffffff" stroke="#cbd5e1" stroke-width="0.7"/><rect x="748.5" y="276.0" width="16.5" height="16.5" fill="#ffffff" stroke="#cbd5e1" stroke-width="0.7"/><rect x="765.0" y="276.0" width="16.5" height="16.5" fill="#ffffff" stroke="#cbd5e1" stroke-width="0.7"/><rect x="781.5" y="276.0" width="16.5" height="16.5" fill="#ffffff" stroke="#cbd5e1" stroke-width="0.7"/><rect x="798.0" y="276.0" width="16.5" height="16.5" fill="#ffffff" stroke="#cbd5e1" stroke-width="0.7"/><rect x="814.5" y="276.0" width="16.5" height="16.5" fill="#ffffff" stroke="#cbd5e1" stroke-width="0.7"/><rect x="831.0" y="276.0" width="16.5" height="16.5" fill="#ffffff" stroke="#cbd5e1" stroke-width="0.7"/><rect x="847.5" y="276.0" width="16.5" height="16.5" fill="#ffffff" stroke="#cbd5e1" stroke-width="0.7"/><rect x="864.0" y="276.0" width="16.5" height="16.5" fill="#ffffff" stroke="#cbd5e1" stroke-width="0.7"/><rect x="880.5" y="276.0" width="16.5" height="16.5" fill="#ffffff" stroke="#cbd5e1" stroke-width="0.7"/><rect x="897.0" y="276.0" width="16.5" height="16.5" fill="#ffffff" stroke="#cbd5e1" stroke-width="0.7"/><rect x="913.5" y="276.0" width="16.5" height="16.5" fill="#ffffff" stroke="#cbd5e1" stroke-width="0.7"/><rect x="666.0" y="292.5" width="16.5" height="16.5" fill="#ffffff" stroke="#cbd5e1" stroke-width="0.7"/><rect x="682.5" y="292.5" width="16.5" height="16.5" fill="#ffffff" stroke="#cbd5e1" stroke-width="0.7"/><rect x="699.0" y="292.5" width="16.5" height="16.5" fill="#ffffff" stroke="#cbd5e1" stroke-width="0.7"/><rect x="715.5" y="292.5" width="16.5" height="16.5" fill="#ffffff" stroke="#cbd5e1" stroke-width="0.7"/><rect x="732.0" y="292.5" width="16.5" height="16.5" fill="#ffffff" stroke="#cbd5e1" stroke-width="0.7"/><rect x="748.5" y="292.5" width="16.5" height="16.5" fill="#ffffff" stroke="#cbd5e1" stroke-width="0.7"/><rect x="765.0" y="292.5" width="16.5" height="16.5" fill="#ffffff" stroke="#cbd5e1" stroke-width="0.7"/><rect x="781.5" y="292.5" width="16.5" height="16.5" fill="#ffffff" stroke="#cbd5e1" stroke-width="0.7"/><rect x="798.0" y="292.5" width="16.5" height="16.5" fill="#ffffff" stroke="#cbd5e1" stroke-width="0.7"/><rect x="814.5" y="292.5" width="16.5" height="16.5" fill="#ffffff" stroke="#cbd5e1" stroke-width="0.7"/><rect x="831.0" y="292.5" width="16.5" height="16.5" fill="#ffffff" stroke="#cbd5e1" stroke-width="0.7"/><rect x="847.5" y="292.5" width="16.5" height="16.5" fill="#ffffff" stroke="#cbd5e1" stroke-width="0.7"/><rect x="864.0" y="292.5" width="16.5" height="16.5" fill="#ffffff" stroke="#cbd5e1" stroke-width="0.7"/><rect x="880.5" y="292.5" width="16.5" height="16.5" fill="#ffffff" stroke="#cbd5e1" stroke-width="0.7"/><rect x="897.0" y="292.5" width="16.5" height="16.5" fill="#ffffff" stroke="#cbd5e1" stroke-width="0.7"/><rect x="913.5" y="292.5" width="16.5" height="16.5" fill="#ffffff" stroke="#cbd5e1" stroke-width="0.7"/><rect x="666.0" y="309.0" width="16.5" height="16.5" fill="#ffffff" stroke="#cbd5e1" stroke-width="0.7"/><rect x="682.5" y="309.0" width="16.5" height="16.5" fill="#ffffff" stroke="#cbd5e1" stroke-width="0.7"/><rect x="699.0" y="309.0" width="16.5" height="16.5" fill="#ffffff" stroke="#cbd5e1" stroke-width="0.7"/><rect x="715.5" y="309.0" width="16.5" height="16.5" fill="#ffffff" stroke="#cbd5e1" stroke-width="0.7"/><rect x="732.0" y="309.0" width="16.5" height="16.5" fill="#ffffff" stroke="#cbd5e1" stroke-width="0.7"/><rect x="748.5" y="309.0" width="16.5" height="16.5" fill="#ffffff" stroke="#cbd5e1" stroke-width="0.7"/><rect x="765.0" y="309.0" width="16.5" height="16.5" fill="#ffffff" stroke="#cbd5e1" stroke-width="0.7"/><rect x="781.5" y="309.0" width="16.5" height="16.5" fill="#ffffff" stroke="#cbd5e1" stroke-width="0.7"/><rect x="798.0" y="309.0" width="16.5" height="16.5" fill="#ffffff" stroke="#cbd5e1" stroke-width="0.7"/><rect x="814.5" y="309.0" width="16.5" height="16.5" fill="#ffffff" stroke="#cbd5e1" stroke-width="0.7"/><rect x="831.0" y="309.0" width="16.5" height="16.5" fill="#ffffff" stroke="#cbd5e1" stroke-width="0.7"/><rect x="847.5" y="309.0" width="16.5" height="16.5" fill="#ffffff" stroke="#cbd5e1" stroke-width="0.7"/><rect x="864.0" y="309.0" width="16.5" height="16.5" fill="#ffffff" stroke="#cbd5e1" stroke-width="0.7"/><rect x="880.5" y="309.0" width="16.5" height="16.5" fill="#ffffff" stroke="#cbd5e1" stroke-width="0.7"/><rect x="897.0" y="309.0" width="16.5" height="16.5" fill="#ffffff" stroke="#cbd5e1" stroke-width="0.7"/><rect x="913.5" y="309.0" width="16.5" height="16.5" fill="#ffffff" stroke="#cbd5e1" stroke-width="0.7"/><rect x="666.0" y="325.5" width="16.5" height="16.5" fill="#ffffff" stroke="#cbd5e1" stroke-width="0.7"/><rect x="682.5" y="325.5" width="16.5" height="16.5" fill="#ffffff" stroke="#cbd5e1" stroke-width="0.7"/><rect x="699.0" y="325.5" width="16.5" height="16.5" fill="#ffffff" stroke="#cbd5e1" stroke-width="0.7"/><rect x="715.5" y="325.5" width="16.5" height="16.5" fill="#ffffff" stroke="#cbd5e1" stroke-width="0.7"/><rect x="732.0" y="325.5" width="16.5" height="16.5" fill="#ffffff" stroke="#cbd5e1" stroke-width="0.7"/><rect x="748.5" y="325.5" width="16.5" height="16.5" fill="#ffffff" stroke="#cbd5e1" stroke-width="0.7"/><rect x="765.0" y="325.5" width="16.5" height="16.5" fill="#ffffff" stroke="#cbd5e1" stroke-width="0.7"/><rect x="781.5" y="325.5" width="16.5" height="16.5" fill="#ffffff" stroke="#cbd5e1" stroke-width="0.7"/><rect x="798.0" y="325.5" width="16.5" height="16.5" fill="#ffffff" stroke="#cbd5e1" stroke-width="0.7"/><rect x="814.5" y="325.5" width="16.5" height="16.5" fill="#ffffff" stroke="#cbd5e1" stroke-width="0.7"/><rect x="831.0" y="325.5" width="16.5" height="16.5" fill="#ffffff" stroke="#cbd5e1" stroke-width="0.7"/><rect x="847.5" y="325.5" width="16.5" height="16.5" fill="#ffffff" stroke="#cbd5e1" stroke-width="0.7"/><rect x="864.0" y="325.5" width="16.5" height="16.5" fill="#ffffff" stroke="#cbd5e1" stroke-width="0.7"/><rect x="880.5" y="325.5" width="16.5" height="16.5" fill="#ffffff" stroke="#cbd5e1" stroke-width="0.7"/><rect x="897.0" y="325.5" width="16.5" height="16.5" fill="#ffffff" stroke="#cbd5e1" stroke-width="0.7"/><rect x="913.5" y="325.5" width="16.5" height="16.5" fill="#ffffff" stroke="#cbd5e1" stroke-width="0.7"/><rect x="666" y="78" width="264" height="264" fill="none" stroke="#94a3b8" stroke-width="1.4"/><circle cx="819.12" cy="173.04" r="5" fill="#0f172a"/><text x="798" y="40" font-family="ui-sans-serif, system-ui, -apple-system, sans-serif" font-size="15" fill="#1e293b" text-anchor="middle" font-weight="600" >Level 2: 16 × 16 cells</text><text x="798" y="60" font-family="ui-sans-serif, system-ui, -apple-system, sans-serif" font-size="11.5" fill="#64748b" text-anchor="middle" font-weight="normal" >previous 3×3 refined, minus its own 3×3</text><rect x="666" y="356" width="14" height="14" fill="#fae8cd" stroke="#cbd5e1"/><text x="686" y="367" font-family="ui-sans-serif, system-ui, -apple-system, sans-serif" font-size="12" fill="#1e293b" text-anchor="start" font-weight="normal" >centroid force at this level</text><rect x="666" y="378" width="14" height="14" fill="#fbdada" stroke="#cbd5e1"/><text x="686" y="389" font-family="ui-sans-serif, system-ui, -apple-system, sans-serif" font-size="12" fill="#1e293b" text-anchor="start" font-weight="normal" >3×3 → near field (Monte-Carlo pairs)</text><text x="490" y="446" font-family="ui-sans-serif, system-ui, -apple-system, sans-serif" font-size="13" fill="#64748b" text-anchor="middle" font-weight="normal" >Every region of space is charged to exactly one pass — no gaps, no double counting. The finest grid adapts to n (≈ 2·√n cells per axis, 8²…512²).</text>
</svg>